<?xml version="1.0" encoding="UTF-8" standalone="no"?><!DOCTYPE svg PUBLIC "-//W3C//DTD SVG 1.1//EN" "http://www.w3.org/Graphics/SVG/1.1/DTD/svg11.dtd"><svg width="100%" height="100%" viewBox="0 0 137 146" version="1.1" xmlns="http://www.w3.org/2000/svg" xmlns:xlink="http://www.w3.org/1999/xlink" xml:space="preserve" xmlns:serif="http://www.serif.com/" style="fill-rule:evenodd;clip-rule:evenodd;stroke-linejoin:round;stroke-miterlimit:2;"><path d="M132.72,53.904c2.463,7.078 3.803,14.684 3.803,22.602c0,37.837 -30.587,68.556 -68.261,68.556c-37.674,0 -68.261,-30.719 -68.261,-68.556c0,-37.837 30.587,-68.556 68.261,-68.556c2.108,0 4.195,0.096 6.255,0.284c-3.458,5.112 -5.654,11.124 -6.148,17.601c-27.801,0.119 -50.335,22.824 -50.335,50.772c0,28.022 22.653,50.773 50.555,50.773c27.902,0 50.555,-22.751 50.555,-50.773c0,-4.514 -0.588,-8.891 -1.69,-13.058c5.877,-1.946 11.103,-5.297 15.267,-9.647Z" style="fill:#f2f6fa;"/><path d="M105.584,0c15.46,0 28.012,12.383 28.012,27.634c0,15.252 -12.552,27.634 -28.012,27.634c-15.46,0 -28.012,-12.383 -28.012,-27.634c0,-15.252 12.552,-27.634 28.012,-27.634Zm0,13.202c8.074,0 14.63,6.467 14.63,14.433c0,7.966 -6.555,14.433 -14.63,14.433c-8.074,0 -14.63,-6.467 -14.63,-14.433c0,-7.966 6.555,-14.433 14.63,-14.433Z" style="fill:#1079bf;"/></svg>