<?xml version="1.0" encoding="UTF-8" standalone="no"?><!DOCTYPE svg PUBLIC "-//W3C//DTD SVG 1.1//EN" "http://www.w3.org/Graphics/SVG/1.1/DTD/svg11.dtd"><svg width="100%" height="100%" viewBox="0 0 467 146" version="1.1" xmlns="http://www.w3.org/2000/svg" xmlns:xlink="http://www.w3.org/1999/xlink" xml:space="preserve" xmlns:serif="http://www.serif.com/" style="fill-rule:evenodd;clip-rule:evenodd;stroke-linejoin:round;stroke-miterlimit:2;"><g id="White"><g transform="matrix(125,0,0,125,167.392834,115.214675)"><path d="M0.317,0.01c-0.054,0 -0.102,-0.012 -0.144,-0.036c-0.042,-0.024 -0.076,-0.056 -0.1,-0.098c-0.024,-0.041 -0.037,-0.088 -0.037,-0.142c0,-0.053 0.012,-0.1 0.037,-0.142c0.024,-0.041 0.058,-0.074 0.1,-0.098c0.042,-0.024 0.09,-0.036 0.144,-0.036c0.054,0 0.101,0.012 0.144,0.036c0.042,0.024 0.075,0.056 0.1,0.098c0.024,0.041 0.036,0.088 0.036,0.142c0,0.053 -0.012,0.1 -0.036,0.142c-0.024,0.041 -0.057,0.074 -0.1,0.098c-0.042,0.024 -0.09,0.036 -0.144,0.036Zm0,-0.124c0.026,-0 0.05,-0.007 0.07,-0.02c0.021,-0.013 0.037,-0.031 0.048,-0.054c0.012,-0.023 0.017,-0.049 0.017,-0.077c0,-0.029 -0.005,-0.056 -0.017,-0.079c-0.012,-0.023 -0.028,-0.041 -0.048,-0.054c-0.021,-0.013 -0.044,-0.02 -0.07,-0.02c-0.026,0 -0.05,0.007 -0.071,0.02c-0.021,0.013 -0.037,0.031 -0.049,0.054c-0.012,0.023 -0.017,0.049 -0.017,0.078c-0,0.029 0.005,0.055 0.017,0.077c0.012,0.023 0.028,0.041 0.049,0.054c0.021,0.013 0.044,0.02 0.071,0.02Z" style="fill:#f2f6fa;fill-rule:nonzero;"/></g><g transform="matrix(125,0,0,125,246.142834,115.214675)"><path d="M0.071,-0l0,-0.529l0.137,0l0.005,0.17l-0.024,-0.035c0.008,-0.027 0.021,-0.052 0.039,-0.074c0.018,-0.022 0.039,-0.04 0.064,-0.052c0.024,-0.013 0.05,-0.019 0.077,-0.019c0.012,0 0.023,0.001 0.033,0.003c0.01,0.002 0.019,0.004 0.027,0.007l-0.038,0.156c-0.007,-0.004 -0.017,-0.007 -0.028,-0.01c-0.011,-0.003 -0.023,-0.004 -0.035,-0.004c-0.016,0 -0.03,0.003 -0.044,0.009c-0.014,0.006 -0.026,0.014 -0.036,0.024c-0.01,0.01 -0.018,0.023 -0.024,0.036c-0.006,0.014 -0.009,0.029 -0.009,0.046l0,0.274l-0.143,-0Z" style="fill:#f2f6fa;fill-rule:nonzero;"/></g><g transform="matrix(125,0,0,125,300.642834,115.214675)"><path d="M0.376,0.01c-0.023,0 -0.046,-0.003 -0.068,-0.01c-0.022,-0.007 -0.042,-0.016 -0.06,-0.028c-0.018,-0.012 -0.033,-0.025 -0.045,-0.04c-0.012,-0.015 -0.02,-0.03 -0.024,-0.046l0.032,-0.012l-0.006,0.124l-0.134,-0l0,-0.738l0.142,0l0,0.335l-0.027,-0.011c0.004,-0.016 0.011,-0.032 0.023,-0.047c0.011,-0.015 0.026,-0.028 0.043,-0.04c0.017,-0.012 0.036,-0.021 0.057,-0.028c0.021,-0.007 0.042,-0.01 0.064,-0.01c0.047,0 0.088,0.012 0.124,0.035c0.036,0.024 0.064,0.056 0.085,0.097c0.021,0.041 0.031,0.089 0.031,0.142c0,0.053 -0.01,0.101 -0.031,0.142c-0.02,0.041 -0.049,0.074 -0.084,0.098c-0.036,0.024 -0.076,0.036 -0.121,0.036Zm-0.034,-0.122c0.026,0 0.049,-0.007 0.069,-0.02c0.02,-0.013 0.035,-0.031 0.047,-0.054c0.011,-0.023 0.017,-0.05 0.017,-0.08c0,-0.03 -0.006,-0.057 -0.017,-0.08c-0.011,-0.023 -0.027,-0.041 -0.046,-0.054c-0.02,-0.013 -0.043,-0.019 -0.07,-0.019c-0.027,0 -0.05,0.006 -0.07,0.019c-0.02,0.013 -0.036,0.031 -0.047,0.054c-0.011,0.023 -0.017,0.05 -0.017,0.08c0,0.031 0.006,0.057 0.017,0.08c0.011,0.023 0.027,0.041 0.047,0.054c0.02,0.013 0.043,0.02 0.07,0.02Z" style="fill:#f2f6fa;fill-rule:nonzero;"/></g><g transform="matrix(125,0,0,125,381.517834,115.214675)"><path d="M0.083,-0l0,-0.529l0.142,0l0,0.529l-0.142,-0Zm0.07,-0.638c-0.027,0 -0.049,-0.007 -0.064,-0.02c-0.015,-0.013 -0.023,-0.032 -0.023,-0.057c0,-0.023 0.008,-0.041 0.023,-0.056c0.016,-0.014 0.037,-0.022 0.064,-0.022c0.027,0 0.049,0.007 0.064,0.02c0.015,0.013 0.023,0.032 0.023,0.057c0,0.023 -0.008,0.041 -0.023,0.056c-0.016,0.014 -0.037,0.021 -0.064,0.021Z" style="fill:#f2f6fa;fill-rule:nonzero;"/></g><g transform="matrix(125,0,0,125,419.517834,115.214675)"><path d="M0.122,-0l0,-0.663l0.142,0l0,0.663l-0.142,-0Zm-0.099,-0.402l0,-0.127l0.35,0l0,0.127l-0.35,0Z" style="fill:#f2f6fa;fill-rule:nonzero;"/></g><path d="M132.72,53.904c2.463,7.078 3.803,14.684 3.803,22.602c0,37.837 -30.587,68.556 -68.261,68.556c-37.674,0 -68.261,-30.719 -68.261,-68.556c0,-37.837 30.587,-68.556 68.261,-68.556c2.108,0 4.195,0.096 6.255,0.284c-3.458,5.112 -5.654,11.124 -6.148,17.601c-27.801,0.119 -50.335,22.824 -50.335,50.772c0,28.022 22.653,50.773 50.555,50.773c27.902,0 50.555,-22.751 50.555,-50.773c0,-4.514 -0.588,-8.891 -1.69,-13.058c5.877,-1.946 11.103,-5.297 15.267,-9.647Z" style="fill:#f2f6fa;"/><path d="M105.584,0c15.46,0 28.012,12.383 28.012,27.634c0,15.252 -12.552,27.634 -28.012,27.634c-15.46,0 -28.012,-12.383 -28.012,-27.634c0,-15.252 12.552,-27.634 28.012,-27.634Zm0,13.202c8.074,0 14.63,6.467 14.63,14.433c0,7.966 -6.555,14.433 -14.63,14.433c-8.074,0 -14.63,-6.467 -14.63,-14.433c0,-7.966 6.555,-14.433 14.63,-14.433Z" style="fill:#1079bf;"/></g></svg>